<svg width="30" height="33" viewBox="0 0 30 33" fill="none" xmlns="http://www.w3.org/2000/svg">
<path fill-rule="evenodd" clip-rule="evenodd" d="M29.168 5.15055C29.2533 4.51055 29.2107 3.93455 29.04 3.42255C28.784 2.73988 28.3787 2.20655 27.824 1.82255C27.312 1.39588 26.736 1.11855 26.096 0.990551C25.456 0.86255 24.8373 0.883883 24.24 1.05455C23.6427 1.18255 23.152 1.45988 22.768 1.88655C22 2.69722 21.3387 3.63588 20.784 4.70255C20.272 5.76922 19.76 6.85722 19.248 7.96655C18.6933 9.16122 18.224 10.1426 17.84 10.9106C17.4987 11.6786 17.1573 12.3826 16.816 13.0226C16.5173 13.6626 16.1973 14.3239 15.856 15.0066C15.5147 15.6466 15.1307 16.4572 14.704 17.4386C14.1067 16.2012 13.424 14.8572 12.656 13.4066C11.9307 11.9559 11.2693 10.6119 10.672 9.37455C10.416 8.86255 10.1387 8.26522 9.84 7.58255C9.584 6.85722 9.28534 6.15322 8.944 5.47055C8.64534 4.74522 8.32534 4.06255 7.984 3.42255C7.64267 2.78255 7.28 2.27055 6.896 1.88655C6.512 1.45988 6 1.18255 5.36 1.05455C4.72 0.883883 4.08 0.86255 3.44 0.990551C2.8 1.11855 2.224 1.37455 1.712 1.75855C1.2 2.14255 0.880002 2.65455 0.752002 3.29455C0.624002 3.97722 0.581335 4.65988 0.624002 5.34255C0.709335 5.98255 0.837335 6.62255 1.008 7.26255C1.22134 7.90255 1.456 8.49988 1.712 9.05455C1.968 9.60922 2.20267 10.1426 2.416 10.6546C3.22667 12.5319 3.93067 14.1319 4.528 15.4546C5.12534 16.7346 5.65867 17.8866 6.128 18.9106C6.64 19.8919 7.10934 20.8092 7.536 21.6626C8.00534 22.5159 8.496 23.4332 9.008 24.4146C9.264 24.9266 9.54134 25.5452 9.84 26.2706C10.1813 26.9532 10.544 27.6359 10.928 28.3186C11.312 28.9586 11.7173 29.5559 12.144 30.1106C12.6133 30.6652 13.104 31.0706 13.616 31.3266C14.0427 31.6252 14.4267 31.7319 14.768 31.6466C15.1947 31.6892 15.6213 31.5826 16.048 31.3266C16.435 31.133 16.7977 30.8542 17.1359 30.49C16.8657 29.8011 16.7273 29.0583 16.7273 28.2727C16.7273 26.6135 17.3449 25.1448 18.5176 23.9721C19.4307 23.059 20.5233 22.4824 21.7456 22.2719C22.6216 20.52 23.4104 18.8662 24.112 17.3106C25.0933 15.1346 26.1387 12.9159 27.248 10.6546C27.4613 10.1852 27.696 9.65188 27.952 9.05455C28.2507 8.41455 28.5067 7.77455 28.72 7.13455C28.9333 6.45188 29.0827 5.79055 29.168 5.15055ZM20.3656 25.0036C20.2162 25.119 20.0716 25.2466 19.9318 25.3864C19.1288 26.1894 18.7273 27.1515 18.7273 28.2727C18.7273 28.2927 18.7274 28.3126 18.7277 28.3324C18.7304 28.3278 18.7332 28.3232 18.736 28.3186C19.12 27.6359 19.4613 26.9532 19.76 26.2706C19.9795 25.8041 20.1814 25.3818 20.3656 25.0036Z" fill="white"/>
<path d="M22.8182 32.3636C21.697 32.3636 20.7348 31.9621 19.9318 31.1591C19.1288 30.3561 18.7273 29.3939 18.7273 28.2727C18.7273 27.1515 19.1288 26.1894 19.9318 25.3864C20.7348 24.5833 21.697 24.1818 22.8182 24.1818C23.9394 24.1818 24.9015 24.5833 25.7045 25.3864C26.5076 26.1894 26.9091 27.1515 26.9091 28.2727C26.9091 29.0152 26.7197 29.697 26.3409 30.3182C25.9773 30.9394 25.4848 31.4394 24.8636 31.8182C24.2576 32.1818 23.5757 32.3636 22.8182 32.3636Z" fill="#F04276"/>
</svg>
