<svg width="144" height="32" viewBox="0 0 144 32" fill="none" xmlns="http://www.w3.org/2000/svg">
<path d="M28.432 2.9568C28.6027 3.4688 28.6453 4.0448 28.56 4.6848C28.4747 5.3248 28.3253 5.98613 28.112 6.6688C27.8987 7.3088 27.6427 7.9488 27.344 8.5888C27.088 9.18613 26.8533 9.71947 26.64 10.1888C25.5307 12.4501 24.4853 14.6688 23.504 16.8448C22.5227 19.0208 21.3707 21.3888 20.048 23.9488C19.792 24.4608 19.4933 25.0795 19.152 25.8048C18.8533 26.4875 18.512 27.1701 18.128 27.8528C17.744 28.4928 17.3173 29.0901 16.848 29.6448C16.4213 30.1995 15.952 30.6048 15.44 30.8608C15.0133 31.1168 14.5867 31.2235 14.16 31.1808C13.8187 31.2661 13.4347 31.1595 13.008 30.8608C12.496 30.6048 12.0053 30.1995 11.536 29.6448C11.1093 29.0901 10.704 28.4928 10.32 27.8528C9.936 27.1701 9.57333 26.4875 9.232 25.8048C8.93333 25.0795 8.656 24.4608 8.4 23.9488C7.888 22.9675 7.39733 22.0501 6.928 21.1968C6.50133 20.3435 6.032 19.4261 5.52 18.4448C5.05067 17.4208 4.51733 16.2688 3.92 14.9888C3.32267 13.6661 2.61867 12.0661 1.808 10.1888C1.59467 9.6768 1.36 9.14347 1.104 8.5888C0.848 8.03413 0.613333 7.4368 0.4 6.7968C0.229333 6.1568 0.101333 5.5168 0.016 4.8768C-0.0266666 4.19413 0.016 3.51146 0.144 2.8288C0.272 2.1888 0.592 1.6768 1.104 1.2928C1.616 0.908799 2.192 0.652799 2.832 0.524799C3.472 0.396798 4.112 0.418131 4.752 0.588798C5.392 0.716798 5.904 0.994131 6.288 1.4208C6.672 1.8048 7.03467 2.3168 7.376 2.9568C7.71733 3.5968 8.03733 4.27947 8.336 5.0048C8.67733 5.68747 8.976 6.39147 9.232 7.1168C9.53067 7.79946 9.808 8.3968 10.064 8.9088C10.6613 10.1461 11.3227 11.4901 12.048 12.9408C12.816 14.3915 13.4987 15.7355 14.096 16.9728C14.5227 15.9915 14.9067 15.1808 15.248 14.5408C15.5893 13.8581 15.9093 13.1968 16.208 12.5568C16.5493 11.9168 16.8907 11.2128 17.232 10.4448C17.616 9.6768 18.0853 8.69547 18.64 7.5008C19.152 6.39147 19.664 5.30347 20.176 4.2368C20.7307 3.17013 21.392 2.23147 22.16 1.4208C22.544 0.994131 23.0347 0.716798 23.632 0.588798C24.2293 0.418131 24.848 0.396798 25.488 0.524799C26.128 0.652799 26.704 0.930132 27.216 1.3568C27.7707 1.7408 28.176 2.27413 28.432 2.9568Z" fill="white"/>
<path fill-rule="evenodd" clip-rule="evenodd" d="M99.496 18.5088C100.52 18.8075 101.437 19.2128 102.248 19.7248C102.845 20.1515 103.123 20.7701 103.08 21.5808C103.037 22.3488 102.547 23.0315 101.608 23.6288C100.968 24.0128 100.2 24.2048 99.304 24.2048C98.4507 24.2048 97.5547 24.0768 96.616 23.8208C95.6773 23.5648 94.7387 23.2235 93.8 22.7968C92.8613 22.3275 92.0507 21.8581 91.368 21.3888C90.5147 20.8341 89.7467 20.6848 89.064 20.9408C88.4396 21.1749 87.9402 21.5875 87.5657 22.1786C87.8985 22.4032 88.2141 22.6643 88.5107 22.961C89.6834 24.1336 90.3011 25.6023 90.3011 27.2615C90.3011 27.8025 90.232 28.3293 90.0938 28.837C90.398 29.0332 90.7161 29.2171 91.048 29.3888C92.328 30.0288 93.6507 30.4981 95.016 30.7968C96.424 31.0955 97.832 31.2448 99.24 31.2448C100.691 31.2448 102.035 31.1168 103.272 30.8608C104.979 30.4768 106.451 29.7088 107.688 28.5568C108.968 27.4048 109.864 26.0821 110.376 24.5888C110.888 23.0955 110.973 21.5808 110.632 20.0448C110.333 18.5088 109.48 17.1648 108.072 16.0128C107.347 15.4155 106.515 14.9461 105.576 14.6048C104.68 14.2635 103.741 13.9648 102.76 13.7088C101.821 13.4528 100.861 13.1968 99.88 12.9408C98.8987 12.6848 98.0027 12.3435 97.192 11.9168C96.296 11.4475 95.6987 10.8928 95.4 10.2528C95.144 9.6128 95.1227 9.01547 95.336 8.4608C95.592 7.90613 96.04 7.4368 96.68 7.0528C97.32 6.6688 98.1307 6.49813 99.112 6.5408C99.752 6.5408 100.349 6.64747 100.904 6.8608C101.501 7.07413 102.077 7.33013 102.632 7.6288C103.187 7.92747 103.741 8.2048 104.296 8.4608C104.851 8.7168 105.448 8.9088 106.088 9.0368C106.643 9.12213 107.155 9.07947 107.624 8.9088C108.136 8.73813 108.541 8.48213 108.84 8.1408C109.181 7.79947 109.395 7.3728 109.48 6.8608C109.608 6.3488 109.587 5.81547 109.416 5.2608C109.16 4.40747 108.733 3.70347 108.136 3.1488C107.581 2.55147 106.941 2.0608 106.216 1.6768C105.533 1.2928 104.787 0.994134 103.976 0.780799C103.165 0.5248 102.397 0.3328 101.672 0.204799C100.563 0.0341335 99.3893 -0.0298664 98.152 0.0127998C96.9147 0.0554671 95.6987 0.2688 94.504 0.652799C93.352 0.994133 92.2853 1.50613 91.304 2.1888C90.3227 2.8288 89.5333 3.6608 88.936 4.6848C87.8267 6.64747 87.4 8.61013 87.656 10.5728C87.9547 12.4928 88.9787 14.1141 90.728 15.4368C91.5387 16.0341 92.4347 16.5035 93.416 16.8448C94.3973 17.1435 95.4 17.4208 96.424 17.6768C97.4907 17.9328 98.5147 18.2101 99.496 18.5088ZM88.2995 27.3772C88.3006 27.3388 88.3011 27.3003 88.3011 27.2615C88.3011 26.1403 87.8996 25.1782 87.0965 24.3752C87.0529 24.3315 87.0087 24.289 86.9642 24.2478C86.956 24.3797 86.952 24.5147 86.952 24.6528C86.9947 25.5061 87.3147 26.2741 87.912 26.9568C88.037 27.1006 88.1662 27.2408 88.2995 27.3772Z" fill="white"/>
<path d="M35.44 4.0448C36.72 3.4048 38.064 2.9568 39.472 2.7008C40.88 2.40213 42.2667 2.33813 43.632 2.5088C45.04 2.6368 46.384 2.99947 47.664 3.5968C48.944 4.15147 50.1387 4.96213 51.248 6.0288C52.3573 7.13813 53.2107 8.35414 53.808 9.6768C54.4053 10.9995 54.832 12.4715 55.088 14.0928C55.2587 15.2021 55.536 16.2261 55.92 17.1648C56.304 18.1035 56.7093 19.0421 57.136 19.9808C57.6053 20.9195 58.032 21.8581 58.416 22.7968C58.8427 23.7355 59.184 24.7168 59.44 25.7408C59.6533 26.7221 59.568 27.6821 59.184 28.6208C58.8427 29.5168 58.1173 30.0715 57.008 30.2848C56.368 30.4128 55.7493 30.3701 55.152 30.1568C54.5973 29.9008 54.0853 29.5595 53.616 29.1328C53.1467 28.6635 52.72 28.1728 52.336 27.6608C51.9947 27.1061 51.6747 26.5941 51.376 26.1248C50.3947 27.4048 49.328 28.4075 48.176 29.1328C47.024 29.8155 45.6373 30.2635 44.016 30.4768C42.6507 30.6475 41.3493 30.6901 40.112 30.6048C38.8747 30.5195 37.552 30.2848 36.144 29.9008C34.3093 29.4315 32.7947 28.6208 31.6 27.4688C30.448 26.2741 29.552 24.9088 28.912 23.3728C28.3147 21.7941 27.9947 20.1088 27.952 18.3168C27.9093 16.5248 28.1227 14.7541 28.592 13.0048C29.1893 10.7008 30.0853 8.82347 31.28 7.3728C32.4747 5.92213 33.8613 4.8128 35.44 4.0448ZM37.04 11.5328C36.4427 12.1301 35.9733 12.8341 35.632 13.6448C35.2907 14.4555 35.0773 15.3088 34.992 16.2048C34.9493 17.1008 35.0347 17.9968 35.248 18.8928C35.4613 19.7888 35.8027 20.5781 36.272 21.2608C36.6987 21.8581 37.424 22.3701 38.448 22.7968C39.472 23.1808 40.5387 23.4155 41.648 23.5008C42.928 23.5861 44.0373 23.2448 44.976 22.4768C45.9573 21.7088 46.6827 20.7488 47.152 19.5968C47.664 18.4021 47.8987 17.1435 47.856 15.8208C47.8133 14.4555 47.4507 13.2181 46.768 12.1088C46.256 11.2981 45.5733 10.7008 44.72 10.3168C43.9093 9.9328 43.0347 9.7408 42.096 9.7408C41.1573 9.69814 40.2187 9.84747 39.28 10.1888C38.384 10.4875 37.6373 10.9355 37.04 11.5328Z" fill="white"/>
<path d="M61.811 9.1028C61.811 8.6308 61.811 8.0998 61.811 7.5098C61.811 6.88047 61.8307 6.25114 61.87 5.6218C61.9093 4.95314 61.9683 4.3238 62.047 3.7338C62.165 3.10447 62.3223 2.5538 62.519 2.0818C62.8337 1.3738 63.3253 0.901802 63.994 0.665803C64.6627 0.390469 65.3903 0.272469 66.177 0.311802C67.003 0.311802 67.652 0.449469 68.124 0.724802C68.596 1.00014 68.95 1.3738 69.186 1.8458C69.422 2.27847 69.5597 2.7898 69.599 3.3798C69.6777 3.93047 69.717 4.52047 69.717 5.1498C70.071 4.52047 70.543 4.00914 71.133 3.6158C71.7623 3.22247 72.3917 2.9078 73.021 2.6718C73.6503 2.4358 74.2207 2.27847 74.732 2.1998C75.2433 2.0818 75.5383 2.0228 75.617 2.0228C76.6003 1.94414 77.4853 1.92447 78.272 1.9638C79.098 2.00313 80.0027 2.18013 80.986 2.4948C81.6153 2.7308 82.2643 3.06514 82.933 3.4978C83.6017 3.89114 84.1917 4.36314 84.703 4.9138C85.2143 5.46447 85.5487 6.07414 85.706 6.7428C85.9027 7.37214 85.824 8.0408 85.47 8.7488C84.9193 9.73214 84.3097 10.2238 83.641 10.2238C82.9723 10.1845 82.2447 10.0665 81.458 9.8698C81.0253 9.79113 80.514 9.61413 79.924 9.3388C79.334 9.06347 78.8227 8.88647 78.39 8.8078C77.0527 8.61113 75.8727 8.70947 74.85 9.1028C73.8273 9.49614 72.9423 9.96814 72.195 10.5188C71.3297 11.1875 70.5823 11.9545 69.953 12.8198V21.3158C69.953 22.3778 69.9333 23.4791 69.894 24.6198C69.894 25.7605 69.7367 26.8028 69.422 27.7468C69.1467 28.6515 68.655 29.3988 67.947 29.9888C67.2783 30.5395 66.295 30.7755 64.997 30.6968C64.289 30.6575 63.6597 30.3231 63.109 29.6938C62.5583 29.0251 62.224 28.3761 62.106 27.7468C62.0273 27.1568 61.9683 26.4488 61.929 25.6228C61.8897 24.7968 61.8503 23.9315 61.811 23.0268C61.811 22.1221 61.811 21.2175 61.811 20.3128C61.811 19.3688 61.811 18.5035 61.811 17.7168V9.1028Z" fill="white"/>
<path d="M121.208 2.0608C122.616 1.37813 124.088 0.887468 125.624 0.588802C127.16 0.290135 128.675 0.226135 130.168 0.396802C131.704 0.567468 133.176 0.972801 134.584 1.6128C136.035 2.2528 137.357 3.1488 138.552 4.3008C139.533 5.28213 140.387 6.4768 141.112 7.8848C141.837 9.25013 142.371 10.5941 142.712 11.9168C143.437 14.2635 143.544 16.6315 143.032 19.0208C142.52 21.4101 141.645 23.6288 140.408 25.6768C139.811 26.6155 139.064 27.4688 138.168 28.2368C137.315 28.9621 136.397 29.5595 135.416 30.0288C134.136 30.6261 132.749 31.0315 131.256 31.2448C129.763 31.5008 128.312 31.5648 126.904 31.4368C124.344 31.3088 122.083 30.6688 120.12 29.5168C118.2 28.3648 116.643 26.8928 115.448 25.1008C114.296 23.3088 113.528 21.2821 113.144 19.0208C112.803 16.7168 112.952 14.3701 113.592 11.9808C114.275 9.4208 115.256 7.35147 116.536 5.7728C117.859 4.15147 119.416 2.91414 121.208 2.0608ZM123.128 10.6368C122.488 11.2341 121.997 11.9808 121.656 12.8768C121.315 13.7728 121.101 14.7115 121.016 15.6928C120.931 16.6315 120.995 17.5915 121.208 18.5728C121.464 19.5115 121.848 20.3648 122.36 21.1328C122.787 21.7728 123.555 22.3061 124.664 22.7328C125.773 23.1595 126.925 23.4155 128.12 23.5008C129.485 23.5861 130.68 23.2235 131.704 22.4128C132.728 21.5595 133.496 20.5141 134.008 19.2768C134.563 18.0395 134.819 16.6955 134.776 15.2448C134.733 13.7941 134.349 12.4715 133.624 11.2768C133.112 10.4235 132.387 9.8048 131.448 9.4208C130.552 8.99414 129.592 8.7808 128.568 8.7808C127.587 8.73814 126.605 8.88747 125.624 9.2288C124.643 9.52747 123.811 9.9968 123.128 10.6368Z" fill="white"/>
<path d="M84.2102 31.3524C83.089 31.3524 82.1268 30.9509 81.3238 30.1479C80.5208 29.3449 80.1193 28.3827 80.1193 27.2615C80.1193 26.1403 80.5208 25.1782 81.3238 24.3752C82.1268 23.5721 83.089 23.1706 84.2102 23.1706C85.3314 23.1706 86.2935 23.5721 87.0965 24.3752C87.8996 25.1782 88.3011 26.1403 88.3011 27.2615C88.3011 28.004 88.1117 28.6858 87.7329 29.307C87.3693 29.9282 86.8768 30.4282 86.2556 30.807C85.6496 31.1706 84.9677 31.3524 84.2102 31.3524Z" fill="#F04276"/>
</svg>
