<svg width="29" height="32" viewBox="0 0 29 32" fill="none" xmlns="http://www.w3.org/2000/svg">
<path fill-rule="evenodd" clip-rule="evenodd" d="M28.56 4.24229C28.6453 3.60229 28.6027 3.02629 28.432 2.51429C28.176 1.83162 27.7707 1.29829 27.216 0.914285C26.704 0.487619 26.128 0.210286 25.488 0.0822865C24.848 -0.0457144 24.2293 -0.0243813 23.632 0.146286C23.0347 0.274285 22.544 0.551619 22.16 0.978286C21.392 1.78895 20.7307 2.72762 20.176 3.79429C19.664 4.86095 19.152 5.94895 18.64 7.05829C18.0853 8.25295 17.616 9.23429 17.232 10.0023C16.8907 10.7703 16.5493 11.4743 16.208 12.1143C15.9093 12.7543 15.5893 13.4156 15.248 14.0983C14.9067 14.7383 14.5227 15.549 14.096 16.5303C13.4987 15.293 12.816 13.949 12.048 12.4983C11.3227 11.0476 10.6613 9.70362 10.064 8.46629C9.808 7.95429 9.53067 7.35695 9.232 6.67429C8.976 5.94895 8.67733 5.24495 8.336 4.56229C8.03733 3.83695 7.71733 3.15429 7.376 2.51429C7.03467 1.87429 6.672 1.36229 6.288 0.978286C5.904 0.551619 5.392 0.274285 4.752 0.146286C4.112 -0.0243813 3.472 -0.0457144 2.832 0.0822865C2.192 0.210286 1.616 0.466286 1.104 0.850286C0.592 1.23429 0.272 1.74629 0.144 2.38629C0.016 3.06895 -0.0266666 3.75162 0.016 4.43429C0.101333 5.07429 0.229333 5.71429 0.4 6.35429C0.613333 6.99429 0.848 7.59162 1.104 8.14629C1.36 8.70095 1.59467 9.23429 1.808 9.74629C2.61867 11.6236 3.32267 13.2236 3.92 14.5463C4.51733 15.8263 5.05067 16.9783 5.52 18.0023C6.032 18.9836 6.50133 19.901 6.928 20.7543C7.39733 21.6076 7.888 22.525 8.4 23.5063C8.656 24.0183 8.93333 24.637 9.232 25.3623C9.57333 26.045 9.936 26.7276 10.32 27.4103C10.704 28.0503 11.1093 28.6476 11.536 29.2023C12.0053 29.757 12.496 30.1623 13.008 30.4183C13.4347 30.717 13.8187 30.8236 14.16 30.7383C14.5867 30.781 15.0133 30.6743 15.44 30.4183C15.827 30.2248 16.1897 29.9459 16.5279 29.5818C16.2577 28.8928 16.1193 28.15 16.1193 27.3645C16.1193 25.7052 16.7369 24.2366 17.9096 23.0639C18.8227 22.1508 19.9153 21.5742 21.1376 21.3636C22.0136 19.6117 22.8024 17.9579 23.504 16.4023C24.4853 14.2263 25.5307 12.0076 26.64 9.74629C26.8533 9.27695 27.088 8.74362 27.344 8.14629C27.6427 7.50629 27.8987 6.86629 28.112 6.22629C28.3253 5.54362 28.4747 4.88229 28.56 4.24229ZM19.7576 24.0953C19.6082 24.2107 19.4636 24.3383 19.3238 24.4781C18.5208 25.2811 18.1193 26.2433 18.1193 27.3645C18.1193 27.3844 18.1194 27.4043 18.1197 27.4242C18.1224 27.4196 18.1252 27.4149 18.128 27.4103C18.512 26.7276 18.8533 26.045 19.152 25.3623C19.3715 24.8958 19.5734 24.4735 19.7576 24.0953Z" fill="white"/>
<path fill-rule="evenodd" clip-rule="evenodd" d="M19.3243 30.2457C20.1271 31.0486 21.089 31.45 22.21 31.45C22.9674 31.45 23.6491 31.2682 24.255 30.9047C24.8761 30.526 25.3684 30.0261 25.7319 29.405C26.1106 28.7839 26.3 28.1023 26.3 27.36C26.3 26.239 25.8986 25.2771 25.0957 24.4743C24.2929 23.6714 23.331 23.27 22.21 23.27C21.089 23.27 20.1271 23.6714 19.3243 24.4743C18.5214 25.2771 18.12 26.239 18.12 27.36C18.12 28.481 18.5214 29.4429 19.3243 30.2457ZM20.165 27.86H24.255V26.86H20.165V27.86Z" fill="#DC393D"/>
</svg>
